<svg width="400" height="400" viewBox="0 0 400 400" fill="none" xmlns="http://www.w3.org/2000/svg">
<circle cx="200" cy="200" r="200" fill="url(#paint0_linear_32_47)"/>
<path d="M313.5 359.5C237.5 407.5 269.431 385.5 201.5 385.5C135 393.5 141.5 396 54 337C141.5 286.5 120.069 214 188 214C255.931 214 313.5 270.306 313.5 359.5Z" fill="url(#paint1_linear_32_47)"/>
<ellipse cx="288.754" cy="209.366" rx="17.5" ry="23" transform="rotate(8.63136 288.754 209.366)" fill="url(#paint2_linear_32_47)"/>
<ellipse cx="97.9735" cy="207.878" rx="15.5" ry="22" transform="rotate(-12.751 97.9735 207.878)" fill="url(#paint3_linear_32_47)"/>
<ellipse cx="191.5" cy="194.5" rx="97.5" ry="90.5" fill="url(#paint4_linear_32_47)"/>
<ellipse cx="146.5" cy="196.5" rx="21.5" ry="16.5" fill="#FCEFEF"/>
<circle cx="151.5" cy="196.5" r="8.5" fill="url(#paint5_radial_32_47)"/>
<circle cx="152.5" cy="196.5" r="3.5" fill="#535353"/>
<circle cx="155.5" cy="200.5" r="2.5" fill="white"/>
<circle cx="155.5" cy="200.5" r="2.5" fill="white"/>
<circle cx="149.5" cy="194.5" r="1.5" fill="white"/>
<circle cx="149.5" cy="194.5" r="1.5" fill="white"/>
<path d="M168 196.5C168 205.613 164.874 193 153 193C128 190 125 205.613 125 196.5C125 187.387 134.626 180 146.5 180C158.374 180 168 187.387 168 196.5Z" fill="url(#paint6_linear_32_47)"/>
<ellipse cx="225.5" cy="195.5" rx="21.5" ry="16.5" fill="#FCEFEF"/>
<circle cx="230.5" cy="195.5" r="8.5" fill="url(#paint7_radial_32_47)"/>
<circle cx="231.5" cy="195.5" r="3.5" fill="#535353"/>
<circle cx="234.5" cy="199.5" r="2.5" fill="white"/>
<circle cx="234.5" cy="199.5" r="2.5" fill="white"/>
<circle cx="228.5" cy="193.5" r="1.5" fill="white"/>
<circle cx="228.5" cy="193.5" r="1.5" fill="white"/>
<path d="M247 195.5C247 204.613 243.874 192 232 192C207 189 204 204.613 204 195.5C204 186.387 213.626 179 225.5 179C237.374 179 247 186.387 247 195.5Z" fill="url(#paint8_linear_32_47)"/>
<path d="M189.107 236.511L207.26 242.772C215.558 245.634 224.762 243.155 230.5 236.512V236.512" stroke="black"/>
<path d="M182.352 236.161L164.07 243.329C157.637 245.85 150.344 244.7 145 240.321V240.321" stroke="black"/>
<path d="M178.51 195.115C180.913 190.091 188.267 190.765 189.716 196.142L198.962 230.438C199.989 234.251 197.117 238 193.168 238H167.52C163.106 238 160.203 233.394 162.108 229.411L178.51 195.115Z" fill="url(#paint9_linear_32_47)"/>
<path d="M295.5 171C295.5 186.464 259.318 162 200.5 162C141.682 162 104 148.464 104 133C104 117.536 141.682 94 200.5 94C259.318 94 295.5 155.536 295.5 171Z" fill="url(#paint10_linear_32_47)"/>
<ellipse cx="210.547" cy="93.5726" rx="10" ry="5.5" transform="rotate(6.35185 210.547 93.5726)" fill="#A52B21"/>
<path d="M222.741 172.014L246.023 177.857L198.737 172.128L222.741 172.014Z" fill="#6E4229"/>
<path d="M148.485 170.914L172.387 173.121L124.782 174.704L148.485 170.914Z" fill="#6E4229"/>
<defs>
<linearGradient id="paint0_linear_32_47" x1="111.5" y1="32" x2="311.5" y2="400" gradientUnits="userSpaceOnUse">
<stop stop-color="#9FD079"/>
<stop offset="1" stop-color="#517F2E"/>
</linearGradient>
<linearGradient id="paint1_linear_32_47" x1="183.75" y1="214" x2="183.75" y2="390.532" gradientUnits="userSpaceOnUse">
<stop stop-color="#840067"/>
<stop offset="1" stop-color="#9C3939"/>
</linearGradient>
<linearGradient id="paint2_linear_32_47" x1="306.254" y1="209.366" x2="271.17" y2="211.428" gradientUnits="userSpaceOnUse">
<stop stop-color="#FFE5D2"/>
<stop offset="1" stop-color="#FFB8B8"/>
</linearGradient>
<linearGradient id="paint3_linear_32_47" x1="113.473" y1="207.878" x2="82.3838" y2="209.571" gradientUnits="userSpaceOnUse">
<stop stop-color="#FFE5D2"/>
<stop offset="1" stop-color="#FFB8B8"/>
</linearGradient>
<linearGradient id="paint4_linear_32_47" x1="289" y1="194.5" x2="94.2063" y2="210.715" gradientUnits="userSpaceOnUse">
<stop stop-color="#FFE5D2"/>
<stop offset="1" stop-color="#FFB8B8"/>
</linearGradient>
<radialGradient id="paint5_radial_32_47" cx="0" cy="0" r="1" gradientUnits="userSpaceOnUse" gradientTransform="translate(151.5 196.5) rotate(87.7974) scale(13.0096)">
<stop stop-color="#BFDFDB"/>
<stop offset="1" stop-color="#95BEEE"/>
</radialGradient>
<linearGradient id="paint6_linear_32_47" x1="146.5" y1="180" x2="146.5" y2="199.807" gradientUnits="userSpaceOnUse">
<stop stop-color="#D6AEA3"/>
<stop offset="1" stop-color="#FFDCD2"/>
</linearGradient>
<radialGradient id="paint7_radial_32_47" cx="0" cy="0" r="1" gradientUnits="userSpaceOnUse" gradientTransform="translate(230.5 195.5) rotate(87.7974) scale(13.0096)">
<stop stop-color="#BFDFDB"/>
<stop offset="1" stop-color="#95BEEE"/>
</radialGradient>
<linearGradient id="paint8_linear_32_47" x1="225.5" y1="179" x2="225.5" y2="198.807" gradientUnits="userSpaceOnUse">
<stop stop-color="#D6AEA3"/>
<stop offset="1" stop-color="#FFDCD2"/>
</linearGradient>
<linearGradient id="paint9_linear_32_47" x1="179.5" y1="180.5" x2="179.5" y2="238" gradientUnits="userSpaceOnUse">
<stop stop-color="#FCB5B5"/>
<stop offset="1" stop-color="#EEB5BF"/>
</linearGradient>
<linearGradient id="paint10_linear_32_47" x1="202" y1="96.5" x2="191" y2="180" gradientUnits="userSpaceOnUse">
<stop stop-color="#BF3030"/>
<stop offset="1" stop-color="#C15D00"/>
</linearGradient>
</defs>
</svg>
