<svg width="281" height="371" viewBox="0 0 281 371" fill="none" xmlns="http://www.w3.org/2000/svg">
<path d="M106 85.8389L172.63 197.164C181.823 212.524 188.619 229.196 192.783 246.606L222.5 370.839H0L39 274.339L106 85.8389Z" fill="url(#paint0_linear_19_31)"/>
<ellipse rx="13" ry="16" transform="matrix(-1 0 0 1 22 151.839)" fill="url(#paint1_linear_19_31)"/>
<ellipse rx="13" ry="16" transform="matrix(-1 0 0 1 185 154.839)" fill="url(#paint2_linear_19_31)"/>
<ellipse rx="16" ry="29.4706" transform="matrix(-0.979306 -0.202387 -0.202387 0.979306 258.633 32.0988)" fill="url(#paint3_linear_19_31)"/>
<ellipse rx="4.95098" ry="20.3989" transform="matrix(-0.954201 0.299168 0.299168 0.954201 241.413 40.2749)" fill="url(#paint4_linear_19_31)"/>
<ellipse cx="111.5" cy="197.5" rx="43.5" ry="38.5" fill="#AC6E6F"/>
<g filter="url(#filter0_d_19_31)">
<ellipse cx="101.5" cy="154.839" rx="77.5" ry="69" fill="url(#paint5_linear_19_31)"/>
</g>
<ellipse cx="118.5" cy="138.839" rx="12.5" ry="12" fill="#FFDDDD"/>
<circle cx="121" cy="133.839" r="7" fill="url(#paint6_radial_19_31)"/>
<circle cx="123.5" cy="130.339" r="2.5" fill="black"/>
<ellipse cx="120" cy="138.839" rx="3" ry="2" fill="#DCDCDC"/>
<ellipse cx="124.5" cy="135.839" rx="1.5" ry="1" fill="#DCDCDC"/>
<ellipse cx="71.5" cy="138.839" rx="12.5" ry="12" fill="#FFDDDD"/>
<circle cx="74" cy="133.839" r="7" fill="url(#paint7_radial_19_31)"/>
<circle cx="76.5" cy="130.339" r="2.5" fill="black"/>
<ellipse cx="73" cy="138.839" rx="3" ry="2" fill="#DCDCDC"/>
<ellipse cx="77.5" cy="135.839" rx="1.5" ry="1" fill="#DCDCDC"/>
<path d="M157 165.232C157 173.516 139.121 191.232 122 191.232C104.879 191.232 89 182.516 89 174.232C89 165.948 111.5 158.732 127.5 168.232C158 173.232 157 156.948 157 165.232Z" fill="url(#paint8_linear_19_31)"/>
<path d="M24.0038 165.199C24.0038 173.368 41.882 190.839 59.0018 190.839C76.1217 190.839 92 182.244 92 174.074C92 165.905 69.5013 158.789 53.5021 168.158C23.0038 173.088 24.0038 157.03 24.0038 165.199Z" fill="url(#paint9_linear_19_31)"/>
<path d="M95.2835 156.966C97.5832 162.767 92.6332 170.171 84.2274 173.503C75.8216 176.836 67.1431 174.835 64.8434 169.034C62.5437 163.233 72.4902 168.433 80.8961 165.1C89.3019 161.768 92.9838 151.165 95.2835 156.966Z" fill="#D8788F"/>
<path d="M44.6143 102.075C51.0902 91.3275 62.5716 84.5946 75.1127 84.1901L120.92 82.7124C137.58 82.175 153.172 90.8905 161.442 105.363L172 123.839H31.5L44.6143 102.075Z" fill="url(#paint10_linear_19_31)"/>
<g filter="url(#filter1_d_19_31)">
<path d="M40.9242 103.847C41.2802 103.223 41.9429 102.839 42.6606 102.839H161.339C162.057 102.839 162.72 103.223 163.076 103.847L172.79 120.847C173.552 122.18 172.589 123.839 171.054 123.839H32.9464C31.4107 123.839 30.448 122.18 31.2099 120.847L40.9242 103.847Z" fill="url(#paint11_linear_19_31)"/>
</g>
<path d="M104.056 124H137.923C144.05 124 148.386 129.99 146.473 135.811L142.441 148.073C141.199 151.852 137.624 154.367 133.648 154.259L107.962 153.562C104.254 153.462 100.988 151.097 99.7349 147.606L95.5845 136.04C93.4804 130.176 97.826 124 104.056 124Z" fill="url(#paint12_linear_19_31)" fill-opacity="0.25" stroke="black" stroke-width="6"/>
<path d="M78.0641 124H44.4695C38.3655 124 34.032 129.948 35.9025 135.758L40.0088 148.513C41.2345 152.321 44.8264 154.863 48.8249 154.752L74.0769 154.053C77.8046 153.949 81.0825 151.558 82.3188 148.04L86.5551 135.984C88.612 130.13 84.2684 124 78.0641 124Z" fill="url(#paint13_linear_19_31)" fill-opacity="0.25" stroke="url(#paint14_linear_19_31)" stroke-width="6"/>
<rect x="182" y="167.839" width="6" height="5" fill="url(#paint15_linear_19_31)"/>
<rect x="18" y="164.839" width="6" height="5" fill="url(#paint16_linear_19_31)"/>
<path d="M253.061 145.839L271.504 168.218L190.5 239.5L177.5 206.5L253.061 145.839Z" fill="#822E2E"/>
<path d="M227.827 59.8003C227.383 57.4909 229.017 55.2984 231.357 55.0646L265.571 51.6456C267.84 51.4188 269.84 53.1323 269.963 55.4096L275.336 154.666L246.378 156.234L227.827 59.8003Z" fill="url(#paint17_linear_19_31)"/>
<path d="M275 154.339C275 161.242 273.5 170.339 266.5 170.839C261.806 170.839 258 165.243 258 158.339C258 151.435 264.306 148.839 269 148.839C273.694 148.839 275 147.435 275 154.339Z" fill="#822E2E"/>
<defs>
<filter id="filter0_d_19_31" x="22" y="85.8389" width="163" height="146" filterUnits="userSpaceOnUse" color-interpolation-filters="sRGB">
<feFlood flood-opacity="0" result="BackgroundImageFix"/>
<feColorMatrix in="SourceAlpha" type="matrix" values="0 0 0 0 0 0 0 0 0 0 0 0 0 0 0 0 0 0 127 0" result="hardAlpha"/>
<feOffset dx="2" dy="4"/>
<feGaussianBlur stdDeviation="2"/>
<feComposite in2="hardAlpha" operator="out"/>
<feColorMatrix type="matrix" values="0 0 0 0 0 0 0 0 0 0 0 0 0 0 0 0 0 0 0.25 0"/>
<feBlend mode="normal" in2="BackgroundImageFix" result="effect1_dropShadow_19_31"/>
<feBlend mode="normal" in="SourceGraphic" in2="effect1_dropShadow_19_31" result="shape"/>
</filter>
<filter id="filter1_d_19_31" x="26.9434" y="95.8389" width="150.113" height="29" filterUnits="userSpaceOnUse" color-interpolation-filters="sRGB">
<feFlood flood-opacity="0" result="BackgroundImageFix"/>
<feColorMatrix in="SourceAlpha" type="matrix" values="0 0 0 0 0 0 0 0 0 0 0 0 0 0 0 0 0 0 127 0" result="hardAlpha"/>
<feOffset dy="-3"/>
<feGaussianBlur stdDeviation="2"/>
<feComposite in2="hardAlpha" operator="out"/>
<feColorMatrix type="matrix" values="0 0 0 0 0 0 0 0 0 0 0 0 0 0 0 0 0 0 0.25 0"/>
<feBlend mode="normal" in2="BackgroundImageFix" result="effect1_dropShadow_19_31"/>
<feBlend mode="normal" in="SourceGraphic" in2="effect1_dropShadow_19_31" result="shape"/>
</filter>
<linearGradient id="paint0_linear_19_31" x1="185" y1="235.5" x2="14.5" y2="238" gradientUnits="userSpaceOnUse">
<stop stop-color="#822E2E"/>
<stop offset="1" stop-color="#822E70"/>
</linearGradient>
<linearGradient id="paint1_linear_19_31" x1="22.1419" y1="5.33333" x2="-4.15914" y2="18.7379" gradientUnits="userSpaceOnUse">
<stop stop-color="#F1BFA3"/>
<stop offset="1" stop-color="#CD839E"/>
</linearGradient>
<linearGradient id="paint2_linear_19_31" x1="22.1419" y1="5.33333" x2="-4.15914" y2="18.7379" gradientUnits="userSpaceOnUse">
<stop stop-color="#F1BFA3"/>
<stop offset="1" stop-color="#CD839E"/>
</linearGradient>
<linearGradient id="paint3_linear_19_31" x1="27.2516" y1="9.82353" x2="-9.28934" y2="22.2677" gradientUnits="userSpaceOnUse">
<stop stop-color="#F1BFA3"/>
<stop offset="1" stop-color="#CD839E"/>
</linearGradient>
<linearGradient id="paint4_linear_19_31" x1="8.43264" y1="6.79963" x2="-3.89998" y2="8.6772" gradientUnits="userSpaceOnUse">
<stop stop-color="#F1BFA3"/>
<stop offset="1" stop-color="#CD839E"/>
</linearGradient>
<linearGradient id="paint5_linear_19_31" x1="156" y1="108.839" x2="24" y2="201.839" gradientUnits="userSpaceOnUse">
<stop stop-color="#F1BFA3"/>
<stop offset="1" stop-color="#CD839E"/>
</linearGradient>
<radialGradient id="paint6_radial_19_31" cx="0" cy="0" r="1" gradientUnits="userSpaceOnUse" gradientTransform="translate(121 133.839) rotate(90) scale(13.5)">
<stop stop-color="#52281B"/>
<stop offset="1"/>
</radialGradient>
<radialGradient id="paint7_radial_19_31" cx="0" cy="0" r="1" gradientUnits="userSpaceOnUse" gradientTransform="translate(74 133.839) rotate(90) scale(13.5)">
<stop stop-color="#52281B"/>
<stop offset="1"/>
</radialGradient>
<linearGradient id="paint8_linear_19_31" x1="89" y1="172.732" x2="157" y2="158.232" gradientUnits="userSpaceOnUse">
<stop stop-color="#361608"/>
<stop offset="1" stop-color="#523E18"/>
</linearGradient>
<linearGradient id="paint9_linear_19_31" x1="92" y1="172.595" x2="24.087" y2="157.911" gradientUnits="userSpaceOnUse">
<stop stop-color="#361608"/>
<stop offset="1" stop-color="#523E18"/>
</linearGradient>
<linearGradient id="paint10_linear_19_31" x1="150" y1="91.5" x2="49" y2="94.5" gradientUnits="userSpaceOnUse">
<stop stop-color="#D9D9D9"/>
<stop offset="1" stop-color="#E6B9EA"/>
</linearGradient>
<linearGradient id="paint11_linear_19_31" x1="174" y1="110.5" x2="33.5" y2="113" gradientUnits="userSpaceOnUse">
<stop stop-color="#B8B8B8"/>
<stop offset="1" stop-color="#9E899F"/>
</linearGradient>
<linearGradient id="paint12_linear_19_31" x1="142.5" y1="123.5" x2="95.5" y2="153" gradientUnits="userSpaceOnUse">
<stop stop-color="#8001AD"/>
<stop offset="1" stop-color="#8D00BE" stop-opacity="0"/>
</linearGradient>
<linearGradient id="paint13_linear_19_31" x1="85.5" y1="128" x2="37.5" y2="152.5" gradientUnits="userSpaceOnUse">
<stop stop-color="#EB00FF"/>
<stop offset="1" stop-color="#DF00F2" stop-opacity="0"/>
</linearGradient>
<linearGradient id="paint14_linear_19_31" x1="75" y1="126" x2="20.5" y2="128.5" gradientUnits="userSpaceOnUse">
<stop/>
<stop offset="1" stop-color="#5D2A65"/>
</linearGradient>
<linearGradient id="paint15_linear_19_31" x1="185" y1="167.839" x2="185" y2="172.839" gradientUnits="userSpaceOnUse">
<stop stop-color="#DBA20F"/>
<stop offset="1" stop-color="#D7DB0F"/>
</linearGradient>
<linearGradient id="paint16_linear_19_31" x1="21" y1="164.839" x2="21" y2="169.839" gradientUnits="userSpaceOnUse">
<stop stop-color="#DBA20F"/>
<stop offset="1" stop-color="#D7DB0F"/>
</linearGradient>
<linearGradient id="paint17_linear_19_31" x1="255.258" y1="52.0129" x2="260.857" y2="155.45" gradientUnits="userSpaceOnUse">
<stop stop-color="#915218"/>
<stop offset="1" stop-color="#822E2E"/>
</linearGradient>
</defs>
</svg>
